REM DIRINDEX 1\2,1\3,1\4,1\5
REM DIRNAME cjc087,folder01,folder02,folder03,folder04
TITLE ""
FILE "Chapter_05.mp3" MP3
  TRACK 01 AUDIO
    TITLE "0:"
    INDEX 01 00:00:00
  TRACK 02 AUDIO
    TITLE "5:cjc087_1301"
    INDEX 01 00:00:09
  TRACK 03 AUDIO
    TITLE "0:"
    INDEX 01 00:01:56
  TRACK 04 AUDIO
    TITLE "5:cjc087_1302"
    INDEX 01 00:03:19
  TRACK 05 AUDIO
    TITLE "0:"
    INDEX 01 00:05:18
  TRACK 06 AUDIO
    TITLE "4:cjc087_1303"
    INDEX 01 00:06:14
  TRACK 07 AUDIO
    TITLE "3:cjc087_1304"
    INDEX 01 00:08:70
  TRACK 08 AUDIO
    TITLE "0:"
    INDEX 01 00:11:58
  TRACK 09 AUDIO
    TITLE "4:cjc087_1305"
    INDEX 01 00:12:58
  TRACK 10 AUDIO
    TITLE "3:cjc087_1306"
    INDEX 01 00:14:72
  TRACK 11 AUDIO
    TITLE "0:"
    INDEX 01 00:17:53
  TRACK 12 AUDIO
    TITLE "4:cjc087_1307"
    INDEX 01 00:18:48
  TRACK 13 AUDIO
    TITLE "3:cjc087_1308"
    INDEX 01 00:21:64
  TRACK 14 AUDIO
    TITLE "0:"
    INDEX 01 00:24:67
  TRACK 15 AUDIO
    TITLE "4:cjc087_1309"
    INDEX 01 00:25:66
  TRACK 16 AUDIO
    TITLE "3:cjc087_1310"
    INDEX 01 00:28:47
  TRACK 17 AUDIO
    TITLE "0:"
    INDEX 01 00:31:27
  TRACK 18 AUDIO
    TITLE "4:cjc087_1311"
    INDEX 01 00:32:27
  TRACK 19 AUDIO
    TITLE "3:cjc087_1312"
    INDEX 01 00:35:04
  TRACK 20 AUDIO
    TITLE "0:"
    INDEX 01 00:38:12
  TRACK 21 AUDIO
    TITLE "4:cjc087_1313"
    INDEX 01 00:39:11
  TRACK 22 AUDIO
    TITLE "3:cjc087_1314"
    INDEX 01 00:42:00
  TRACK 23 AUDIO
    TITLE "0:"
    INDEX 01 00:44:14
  TRACK 24 AUDIO
    TITLE "5:cjc087_1315"
    INDEX 01 00:45:49
  TRACK 25 AUDIO
    TITLE "0:"
    INDEX 01 00:47:30
  TRACK 26 AUDIO
    TITLE "4:cjc087_1316"
    INDEX 01 00:48:26
  TRACK 27 AUDIO
    TITLE "3:cjc087_1317"
    INDEX 01 00:50:72
  TRACK 28 AUDIO
    TITLE "0:"
    INDEX 01 00:54:05
  TRACK 29 AUDIO
    TITLE "4:cjc087_1318"
    INDEX 01 00:55:04
  TRACK 30 AUDIO
    TITLE "3:cjc087_1319"
    INDEX 01 00:56:69
  TRACK 31 AUDIO
    TITLE "0:"
    INDEX 01 00:58:62
  TRACK 32 AUDIO
    TITLE "4:cjc087_1320"
    INDEX 01 00:59:61
  TRACK 33 AUDIO
    TITLE "3:cjc087_1321"
    INDEX 01 01:01:42
  TRACK 34 AUDIO
    TITLE "0:"
    INDEX 01 01:03:22
  TRACK 35 AUDIO
    TITLE "4:cjc087_1322"
    INDEX 01 01:04:21
  TRACK 36 AUDIO
    TITLE "3:cjc087_1323"
    INDEX 01 01:06:49
  TRACK 37 AUDIO
    TITLE "0:"
    INDEX 01 01:09:50
  TRACK 38 AUDIO
    TITLE "4:cjc087_1324"
    INDEX 01 01:10:41
  TRACK 39 AUDIO
    TITLE "3:cjc087_1325"
    INDEX 01 01:13:18
  TRACK 40 AUDIO
    TITLE "0:"
    INDEX 01 01:16:60
  TRACK 41 AUDIO
    TITLE "4:cjc087_1326"
    INDEX 01 01:17:59
  TRACK 42 AUDIO
    TITLE "3:cjc087_1327"
    INDEX 01 01:20:16
  TRACK 43 AUDIO
    TITLE "0:"
    INDEX 01 01:22:44
  TRACK 44 AUDIO
    TITLE "4:cjc087_1328"
    INDEX 01 01:23:46
  TRACK 45 AUDIO
    TITLE "3:cjc087_1329"
    INDEX 01 01:25:13
  TRACK 46 AUDIO
    TITLE "0:"
    INDEX 01 01:28:00
  TRACK 47 AUDIO
    TITLE "5:cjc087_1330"
    INDEX 01 01:29:37
  TRACK 48 AUDIO
    TITLE "0:"
    INDEX 01 01:31:39
  TRACK 49 AUDIO
    TITLE "4:cjc087_1331"
    INDEX 01 01:32:39
  TRACK 50 AUDIO
    TITLE "3:cjc087_1332"
    INDEX 01 01:34:69
  TRACK 51 AUDIO
    TITLE "0:"
    INDEX 01 01:37:15
  TRACK 52 AUDIO
    TITLE "4:cjc087_1333"
    INDEX 01 01:38:14
  TRACK 53 AUDIO
    TITLE "3:cjc087_1334"
    INDEX 01 01:41:16
  TRACK 54 AUDIO
    TITLE "0:"
    INDEX 01 01:45:14
  TRACK 55 AUDIO
    TITLE "4:cjc087_1335"
    INDEX 01 01:46:12
  TRACK 56 AUDIO
    TITLE "3:cjc087_1336"
    INDEX 01 01:48:40
  TRACK 57 AUDIO
    TITLE "0:"
    INDEX 01 01:51:05
  TRACK 58 AUDIO
    TITLE "4:cjc087_1337"
    INDEX 01 01:52:02
  TRACK 59 AUDIO
    TITLE "3:cjc087_1338"
    INDEX 01 01:54:25
  TRACK 60 AUDIO
    TITLE "0:"
    INDEX 01 01:56:59
  TRACK 61 AUDIO
    TITLE "4:cjc087_1339"
    INDEX 01 01:57:58
  TRACK 62 AUDIO
    TITLE "3:cjc087_1340"
    INDEX 01 01:59:48
  TRACK 63 AUDIO
    TITLE "0:"
    INDEX 01 02:02:71
  TRACK 64 AUDIO
    TITLE "4:cjc087_1341"
    INDEX 01 02:03:73
  TRACK 65 AUDIO
    TITLE "3:cjc087_1342"
    INDEX 01 02:06:69
  TRACK 66 AUDIO
    TITLE "0:"
    INDEX 01 02:09:73
  TRACK 67 AUDIO
    TITLE "5:cjc087_1343"
    INDEX 01 02:11:35
  TRACK 68 AUDIO
    TITLE "0:"
    INDEX 01 02:13:28
  TRACK 69 AUDIO
    TITLE "4:cjc087_1344"
    INDEX 01 02:14:26
  TRACK 70 AUDIO
    TITLE "3:cjc087_1345"
    INDEX 01 02:17:30
  TRACK 71 AUDIO
    TITLE "0:"
    INDEX 01 02:21:14
  TRACK 72 AUDIO
    TITLE "4:cjc087_1346"
    INDEX 01 02:22:13
  TRACK 73 AUDIO
    TITLE "3:cjc087_1347"
    INDEX 01 02:25:23
  TRACK 74 AUDIO
    TITLE "0:"
    INDEX 01 02:29:00
  TRACK 75 AUDIO
    TITLE "4:cjc087_1348"
    INDEX 01 02:29:72
  TRACK 76 AUDIO
    TITLE "3:cjc087_1349"
    INDEX 01 02:32:20
  TRACK 77 AUDIO
    TITLE "0:"
    INDEX 01 02:35:16
  TRACK 78 AUDIO
    TITLE "4:cjc087_1350"
    INDEX 01 02:36:15
  TRACK 79 AUDIO
    TITLE "3:cjc087_1351"
    INDEX 01 02:38:71
  TRACK 80 AUDIO
    TITLE "0:"
    INDEX 01 02:41:54
  TRACK 81 AUDIO
    TITLE "4:cjc087_1352"
    INDEX 01 02:42:49
  TRACK 82 AUDIO
    TITLE "3:cjc087_1353"
    INDEX 01 02:44:62
  TRACK 83 AUDIO
    TITLE "0:"
    INDEX 01 02:47:58
  TRACK 84 AUDIO
    TITLE "4:cjc087_1354"
    INDEX 01 02:48:58
  TRACK 85 AUDIO
    TITLE "3:cjc087_1355"
    INDEX 01 02:51:29
  TRACK 86 AUDIO
    TITLE "0:"
    INDEX 01 02:54:29
  TRACK 87 AUDIO
    TITLE "2:cjc087_1356"
    INDEX 01 02:55:66
  TRACK 88 AUDIO
    TITLE "0:"
    INDEX 01 03:11:22
  TRACK 89 AUDIO
    TITLE "5:cjc087_1357"
    INDEX 01 03:12:64
  TRACK 90 AUDIO
    TITLE "0:"
    INDEX 01 03:14:61
  TRACK 91 AUDIO
    TITLE "4:cjc087_1358"
    INDEX 01 03:15:51
  TRACK 92 AUDIO
    TITLE "3:cjc087_1359"
    INDEX 01 03:18:43
  TRACK 93 AUDIO
    TITLE "0:"
    INDEX 01 03:22:02
  TRACK 94 AUDIO
    TITLE "4:cjc087_1360"
    INDEX 01 03:22:74
  TRACK 95 AUDIO
    TITLE "3:cjc087_1361"
    INDEX 01 03:25:12
  TRACK 96 AUDIO
    TITLE "0:"
    INDEX 01 03:28:08
  TRACK 97 AUDIO
    TITLE "4:cjc087_1362"
    INDEX 01 03:29:08
  TRACK 98 AUDIO
    TITLE "3:cjc087_1363"
    INDEX 01 03:31:42
  TRACK 99 AUDIO
    TITLE "0:"
    INDEX 01 03:34:60
  TRACK 100 AUDIO
    TITLE "4:cjc087_1364"
    INDEX 01 03:35:57
  TRACK 101 AUDIO
    TITLE "3:cjc087_1365"
    INDEX 01 03:37:72
  TRACK 102 AUDIO
    TITLE "0:"
    INDEX 01 03:40:60
  TRACK 103 AUDIO
    TITLE "4:cjc087_1366"
    INDEX 01 03:41:58
  TRACK 104 AUDIO
    TITLE "3:cjc087_1367"
    INDEX 01 03:44:45
  TRACK 105 AUDIO
    TITLE "0:"
    INDEX 01 03:47:35
  TRACK 106 AUDIO
    TITLE "5:cjc087_1368"
    INDEX 01 03:48:72
  TRACK 107 AUDIO
    TITLE "0:"
    INDEX 01 03:50:67
  TRACK 108 AUDIO
    TITLE "4:cjc087_1369"
    INDEX 01 03:51:64
  TRACK 109 AUDIO
    TITLE "3:cjc087_1370"
    INDEX 01 03:53:22
  TRACK 110 AUDIO
    TITLE "0:"
    INDEX 01 03:55:15
  TRACK 111 AUDIO
    TITLE "4:cjc087_1371"
    INDEX 01 03:56:11
  TRACK 112 AUDIO
    TITLE "3:cjc087_1372"
    INDEX 01 03:57:63
  TRACK 113 AUDIO
    TITLE "0:"
    INDEX 01 03:59:62
  TRACK 114 AUDIO
    TITLE "4:cjc087_1373"
    INDEX 01 04:00:59
  TRACK 115 AUDIO
    TITLE "3:cjc087_1374"
    INDEX 01 04:03:56
  TRACK 116 AUDIO
    TITLE "0:"
    INDEX 01 04:07:04
  TRACK 117 AUDIO
    TITLE "4:cjc087_1375"
    INDEX 01 04:08:00
  TRACK 118 AUDIO
    TITLE "3:cjc087_1376"
    INDEX 01 04:10:42
  TRACK 119 AUDIO
    TITLE "0:"
    INDEX 01 04:13:07
  TRACK 120 AUDIO
    TITLE "4:cjc087_1377"
    INDEX 01 04:14:06
  TRACK 121 AUDIO
    TITLE "3:cjc087_1378"
    INDEX 01 04:16:48
  TRACK 122 AUDIO
    TITLE "0:"
    INDEX 01 04:19:74
  TRACK 123 AUDIO
    TITLE "4:cjc087_1379"
    INDEX 01 04:20:74
  TRACK 124 AUDIO
    TITLE "3:cjc087_1380"
    INDEX 01 04:23:47
  TRACK 125 AUDIO
    TITLE "0:"
    INDEX 01 04:26:37
  TRACK 126 AUDIO
    TITLE "5:cjc087_1381"
    INDEX 01 04:27:72
  TRACK 127 AUDIO
    TITLE "0:"
    INDEX 01 04:29:67
  TRACK 128 AUDIO
    TITLE "4:cjc087_1382"
    INDEX 01 04:30:64
  TRACK 129 AUDIO
    TITLE "3:cjc087_1383"
    INDEX 01 04:33:00
  TRACK 130 AUDIO
    TITLE "0:"
    INDEX 01 04:35:09
  TRACK 131 AUDIO
    TITLE "4:cjc087_1384"
    INDEX 01 04:36:08
  TRACK 132 AUDIO
    TITLE "3:cjc087_1385"
    INDEX 01 04:40:02
  TRACK 133 AUDIO
    TITLE "0:"
    INDEX 01 04:44:02
  TRACK 134 AUDIO
    TITLE "4:cjc087_1386"
    INDEX 01 04:44:74
  TRACK 135 AUDIO
    TITLE "3:cjc087_1387"
    INDEX 01 04:47:55
  TRACK 136 AUDIO
    TITLE "0:"
    INDEX 01 04:51:31
  TRACK 137 AUDIO
    TITLE "4:cjc087_1388"
    INDEX 01 04:52:29
  TRACK 138 AUDIO
    TITLE "3:cjc087_1389"
    INDEX 01 04:55:09
  TRACK 139 AUDIO
    TITLE "0:"
    INDEX 01 04:58:02
  TRACK 140 AUDIO
    TITLE "4:cjc087_1390"
    INDEX 01 04:58:70
  TRACK 141 AUDIO
    TITLE "3:cjc087_1391"
    INDEX 01 05:00:44
  TRACK 142 AUDIO
    TITLE "0:"
    INDEX 01 05:02:68
  TRACK 143 AUDIO
    TITLE "4:cjc087_1392"
    INDEX 01 05:03:68
  TRACK 144 AUDIO
    TITLE "3:cjc087_1393"
    INDEX 01 05:05:37
  TRACK 145 AUDIO
    TITLE "0:"
    INDEX 01 05:09:11
  TRACK 146 AUDIO
    TITLE "4:cjc087_1394"
    INDEX 01 05:10:09
  TRACK 147 AUDIO
    TITLE "3:cjc087_1395"
    INDEX 01 05:11:73
  TRACK 148 AUDIO
    TITLE "0:"
    INDEX 01 05:14:07
  TRACK 149 AUDIO
    TITLE "5:cjc087_1396"
    INDEX 01 05:15:41
  TRACK 150 AUDIO
    TITLE "0:"
    INDEX 01 05:17:46
  TRACK 151 AUDIO
    TITLE "4:cjc087_1397"
    INDEX 01 05:18:36
  TRACK 152 AUDIO
    TITLE "3:cjc087_1398"
    INDEX 01 05:20:31
  TRACK 153 AUDIO
    TITLE "0:"
    INDEX 01 05:22:55
  TRACK 154 AUDIO
    TITLE "4:cjc087_1399"
    INDEX 01 05:23:51
  TRACK 155 AUDIO
    TITLE "3:cjc087_1400"
    INDEX 01 05:26:00
  TRACK 156 AUDIO
    TITLE "0:"
    INDEX 01 05:28:54
  TRACK 157 AUDIO
    TITLE "4:cjc087_1401"
    INDEX 01 05:29:51
  TRACK 158 AUDIO
    TITLE "3:cjc087_1402"
    INDEX 01 05:32:52
  TRACK 159 AUDIO
    TITLE "0:"
    INDEX 01 05:36:12
  TRACK 160 AUDIO
    TITLE "4:cjc087_1403"
    INDEX 01 05:37:10
  TRACK 161 AUDIO
    TITLE "3:cjc087_1404"
    INDEX 01 05:40:61
  TRACK 162 AUDIO
    TITLE "0:"
    INDEX 01 05:44:45
  TRACK 163 AUDIO
    TITLE "4:cjc087_1405"
    INDEX 01 05:45:43
  TRACK 164 AUDIO
    TITLE "3:cjc087_1406"
    INDEX 01 05:48:55
  TRACK 165 AUDIO
    TITLE "0:"
    INDEX 01 05:52:54
  TRACK 166 AUDIO
    TITLE "4:cjc087_1407"
    INDEX 01 05:53:54
  TRACK 167 AUDIO
    TITLE "3:cjc087_1408"
    INDEX 01 05:56:17
  TRACK 168 AUDIO
    TITLE "0:"
    INDEX 01 05:59:05
  TRACK 169 AUDIO
    TITLE "4:cjc087_1409"
    INDEX 01 06:00:07
  TRACK 170 AUDIO
    TITLE "3:cjc087_1410"
    INDEX 01 06:02:35
  TRACK 171 AUDIO
    TITLE "0:"
    INDEX 01 06:04:18
  TRACK 172 AUDIO
    TITLE "5:cjc087_1411"
    INDEX 01 06:05:53
  TRACK 173 AUDIO
    TITLE "0:"
    INDEX 01 06:07:56
  TRACK 174 AUDIO
    TITLE "4:cjc087_1412"
    INDEX 01 06:08:53
  TRACK 175 AUDIO
    TITLE "3:cjc087_1413"
    INDEX 01 06:10:48
  TRACK 176 AUDIO
    TITLE "0:"
    INDEX 01 06:13:57
  TRACK 177 AUDIO
    TITLE "4:cjc087_1414"
    INDEX 01 06:14:56
  TRACK 178 AUDIO
    TITLE "3:cjc087_1415"
    INDEX 01 06:17:54
  TRACK 179 AUDIO
    TITLE "0:"
    INDEX 01 06:20:64
  TRACK 180 AUDIO
    TITLE "4:cjc087_1416"
    INDEX 01 06:21:64
  TRACK 181 AUDIO
    TITLE "3:cjc087_1417"
    INDEX 01 06:24:13
  TRACK 182 AUDIO
    TITLE "0:"
    INDEX 01 06:26:69
  TRACK 183 AUDIO
    TITLE "4:cjc087_1418"
    INDEX 01 06:27:66
  TRACK 184 AUDIO
    TITLE "3:cjc087_1419"
    INDEX 01 06:30:24
  TRACK 185 AUDIO
    TITLE "0:"
    INDEX 01 06:33:40
  TRACK 186 AUDIO
    TITLE "4:cjc087_1420"
    INDEX 01 06:34:39
  TRACK 187 AUDIO
    TITLE "3:cjc087_1421"
    INDEX 01 06:37:67
  TRACK 188 AUDIO
    TITLE "0:"
    INDEX 01 06:41:61
  TRACK 189 AUDIO
    TITLE "5:cjc087_1422"
    INDEX 01 06:43:20
  TRACK 190 AUDIO
    TITLE "0:"
    INDEX 01 06:45:31
  TRACK 191 AUDIO
    TITLE "4:cjc087_1423"
    INDEX 01 06:46:30
  TRACK 192 AUDIO
    TITLE "3:cjc087_1424"
    INDEX 01 06:48:35
  TRACK 193 AUDIO
    TITLE "0:"
    INDEX 01 06:51:38
  TRACK 194 AUDIO
    TITLE "4:cjc087_1425"
    INDEX 01 06:52:35
  TRACK 195 AUDIO
    TITLE "3:cjc087_1426"
    INDEX 01 06:53:54
  TRACK 196 AUDIO
    TITLE "0:"
    INDEX 01 06:55:59
  TRACK 197 AUDIO
    TITLE "4:cjc087_1427"
    INDEX 01 06:56:56
  TRACK 198 AUDIO
    TITLE "3:cjc087_1428"
    INDEX 01 06:57:64
  TRACK 199 AUDIO
    TITLE "0:"
    INDEX 01 07:00:03
  TRACK 200 AUDIO
    TITLE "4:cjc087_1429"
    INDEX 01 07:01:03
  TRACK 201 AUDIO
    TITLE "3:cjc087_1430"
    INDEX 01 07:03:43
  TRACK 202 AUDIO
    TITLE "0:"
    INDEX 01 07:06:45
  TRACK 203 AUDIO
    TITLE "4:cjc087_1431"
    INDEX 01 07:07:44
  TRACK 204 AUDIO
    TITLE "3:cjc087_1432"
    INDEX 01 07:09:35
  TRACK 205 AUDIO
    TITLE "0:"
    INDEX 01 07:11:62
  TRACK 206 AUDIO
    TITLE "4:cjc087_1433"
    INDEX 01 07:12:59
  TRACK 207 AUDIO
    TITLE "3:cjc087_1434"
    INDEX 01 07:15:38
  TRACK 208 AUDIO
    TITLE "0:"
    INDEX 01 07:18:27
  TRACK 209 AUDIO
    TITLE "2:cjc087_1435"
    INDEX 01 07:19:63
  TRACK 210 AUDIO
    TITLE "0:"
    INDEX 01 07:28:60
  TRACK 211 AUDIO
    TITLE "5:cjc087_1436"
    INDEX 01 07:30:24
  TRACK 212 AUDIO
    TITLE "0:"
    INDEX 01 07:32:27
  TRACK 213 AUDIO
    TITLE "4:cjc087_1437"
    INDEX 01 07:33:18
  TRACK 214 AUDIO
    TITLE "3:cjc087_1438"
    INDEX 01 07:36:23
  TRACK 215 AUDIO
    TITLE "0:"
    INDEX 01 07:40:11
  TRACK 216 AUDIO
    TITLE "4:cjc087_1439"
    INDEX 01 07:41:10
  TRACK 217 AUDIO
    TITLE "3:cjc087_1440"
    INDEX 01 07:43:15
  TRACK 218 AUDIO
    TITLE "0:"
    INDEX 01 07:45:49
  TRACK 219 AUDIO
    TITLE "4:cjc087_1441"
    INDEX 01 07:46:46
  TRACK 220 AUDIO
    TITLE "3:cjc087_1442"
    INDEX 01 07:48:69
  TRACK 221 AUDIO
    TITLE "0:"
    INDEX 01 07:51:22
  TRACK 222 AUDIO
    TITLE "4:cjc087_1443"
    INDEX 01 07:52:18
  TRACK 223 AUDIO
    TITLE "3:cjc087_1444"
    INDEX 01 07:53:64
  TRACK 224 AUDIO
    TITLE "0:"
    INDEX 01 07:55:63
  TRACK 225 AUDIO
    TITLE "4:cjc087_1445"
    INDEX 01 07:56:60
  TRACK 226 AUDIO
    TITLE "3:cjc087_1446"
    INDEX 01 07:59:12
  TRACK 227 AUDIO
    TITLE "0:"
    INDEX 01 08:01:36
  TRACK 228 AUDIO
    TITLE "4:cjc087_1447"
    INDEX 01 08:02:36
  TRACK 229 AUDIO
    TITLE "3:cjc087_1448"
    INDEX 01 08:06:30
  TRACK 230 AUDIO
    TITLE "0:"
    INDEX 01 08:10:47
  TRACK 231 AUDIO
    TITLE "5:cjc087_1449"
    INDEX 01 08:12:18
  TRACK 232 AUDIO
    TITLE "0:"
    INDEX 01 08:13:61
  TRACK 233 AUDIO
    TITLE "4:cjc087_1450"
    INDEX 01 08:14:60
  TRACK 234 AUDIO
    TITLE "3:cjc087_1451"
    INDEX 01 08:17:12
  TRACK 235 AUDIO
    TITLE "0:"
    INDEX 01 08:19:28
  TRACK 236 AUDIO
    TITLE "4:cjc087_1452"
    INDEX 01 08:20:26
  TRACK 237 AUDIO
    TITLE "3:cjc087_1453"
    INDEX 01 08:22:17
  TRACK 238 AUDIO
    TITLE "0:"
    INDEX 01 08:24:47
  TRACK 239 AUDIO
    TITLE "4:cjc087_1454"
    INDEX 01 08:25:45
  TRACK 240 AUDIO
    TITLE "3:cjc087_1455"
    INDEX 01 08:27:63
  TRACK 241 AUDIO
    TITLE "0:"
    INDEX 01 08:30:26
  TRACK 242 AUDIO
    TITLE "4:cjc087_1456"
    INDEX 01 08:31:26
  TRACK 243 AUDIO
    TITLE "3:cjc087_1457"
    INDEX 01 08:33:50
  TRACK 244 AUDIO
    TITLE "0:"
    INDEX 01 08:36:72
  TRACK 245 AUDIO
    TITLE "4:cjc087_1458"
    INDEX 01 08:37:69
  TRACK 246 AUDIO
    TITLE "3:cjc087_1459"
    INDEX 01 08:40:21
  TRACK 247 AUDIO
    TITLE "0:"
    INDEX 01 08:43:13
  TRACK 248 AUDIO
    TITLE "4:cjc087_1460"
    INDEX 01 08:44:12
  TRACK 249 AUDIO
    TITLE "3:cjc087_1461"
    INDEX 01 08:46:27
  TRACK 250 AUDIO
    TITLE "0:"
    INDEX 01 08:48:46
  TRACK 251 AUDIO
    TITLE "4:cjc087_1462"
    INDEX 01 08:49:39
  TRACK 252 AUDIO
    TITLE "3:cjc087_1463"
    INDEX 01 08:52:43
  TRACK 253 AUDIO
    TITLE "0:"
    INDEX 01 08:55:20
  TRACK 254 AUDIO
    TITLE "5:cjc087_1464"
    INDEX 01 08:56:57
  TRACK 255 AUDIO
    TITLE "0:"
    INDEX 01 08:58:44
  TRACK 256 AUDIO
    TITLE "4:cjc087_1465"
    INDEX 01 08:59:43
  TRACK 257 AUDIO
    TITLE "3:cjc087_1466"
    INDEX 01 09:01:46
  TRACK 258 AUDIO
    TITLE "0:"
    INDEX 01 09:04:09
  TRACK 259 AUDIO
    TITLE "4:cjc087_1467"
    INDEX 01 09:05:07
  TRACK 260 AUDIO
    TITLE "3:cjc087_1468"
    INDEX 01 09:07:14
  TRACK 261 AUDIO
    TITLE "0:"
    INDEX 01 09:09:20
  TRACK 262 AUDIO
    TITLE "4:cjc087_1469"
    INDEX 01 09:10:16
  TRACK 263 AUDIO
    TITLE "3:cjc087_1470"
    INDEX 01 09:11:60
  TRACK 264 AUDIO
    TITLE "0:"
    INDEX 01 09:14:37
  TRACK 265 AUDIO
    TITLE "4:cjc087_1471"
    INDEX 01 09:15:31
  TRACK 266 AUDIO
    TITLE "3:cjc087_1472"
    INDEX 01 09:17:28
  TRACK 267 AUDIO
    TITLE "0:"
    INDEX 01 09:20:00
  TRACK 268 AUDIO
    TITLE "4:cjc087_1473"
    INDEX 01 09:20:73
  TRACK 269 AUDIO
    TITLE "3:cjc087_1474"
    INDEX 01 09:23:58
  TRACK 270 AUDIO
    TITLE "0:"
    INDEX 01 09:27:06
  TRACK 271 AUDIO
    TITLE "4:cjc087_1475"
    INDEX 01 09:28:06
  TRACK 272 AUDIO
    TITLE "3:cjc087_1476"
    INDEX 01 09:31:43
  TRACK 273 AUDIO
    TITLE "0:"
    INDEX 01 09:34:52
  TRACK 274 AUDIO
    TITLE "4:cjc087_1477"
    INDEX 01 09:35:51
  TRACK 275 AUDIO
    TITLE "3:cjc087_1478"
    INDEX 01 09:37:36
  TRACK 276 AUDIO
    TITLE "0:"
    INDEX 01 09:40:01
  TRACK 277 AUDIO
    TITLE "5:cjc087_1479"
    INDEX 01 09:41:36
  TRACK 278 AUDIO
    TITLE "0:"
    INDEX 01 09:43:15
  TRACK 279 AUDIO
    TITLE "4:cjc087_1480"
    INDEX 01 09:44:13
  TRACK 280 AUDIO
    TITLE "3:cjc087_1481"
    INDEX 01 09:47:31
  TRACK 281 AUDIO
    TITLE "0:"
    INDEX 01 09:50:43
  TRACK 282 AUDIO
    TITLE "4:cjc087_1482"
    INDEX 01 09:51:40
  TRACK 283 AUDIO
    TITLE "3:cjc087_1483"
    INDEX 01 09:53:25
  TRACK 284 AUDIO
    TITLE "0:"
    INDEX 01 09:55:15
  TRACK 285 AUDIO
    TITLE "4:cjc087_1484"
    INDEX 01 09:56:08
  TRACK 286 AUDIO
    TITLE "3:cjc087_1485"
    INDEX 01 10:01:11
  TRACK 287 AUDIO
    TITLE "0:"
    INDEX 01 10:05:29
  TRACK 288 AUDIO
    TITLE "4:cjc087_1486"
    INDEX 01 10:06:28
  TRACK 289 AUDIO
    TITLE "3:cjc087_1487"
    INDEX 01 10:08:48
  TRACK 290 AUDIO
    TITLE "0:"
    INDEX 01 10:11:27
  TRACK 291 AUDIO
    TITLE "4:cjc087_1488"
    INDEX 01 10:12:25
  TRACK 292 AUDIO
    TITLE "3:cjc087_1489"
    INDEX 01 10:14:06
  TRACK 293 AUDIO
    TITLE "0:"
    INDEX 01 10:16:30
  TRACK 294 AUDIO
    TITLE "4:cjc087_1490"
    INDEX 01 10:17:30
  TRACK 295 AUDIO
    TITLE "3:cjc087_1491"
    INDEX 01 10:19:05
  TRACK 296 AUDIO
    TITLE "0:"
    INDEX 01 10:22:54
  TRACK 297 AUDIO
    TITLE "4:cjc087_1492"
    INDEX 01 10:23:52
  TRACK 298 AUDIO
    TITLE "3:cjc087_1493"
    INDEX 01 10:24:69
  TRACK 299 AUDIO
    TITLE "0:"
    INDEX 01 10:26:66
  TRACK 300 AUDIO
    TITLE "5:cjc087_1494"
    INDEX 01 10:28:26
  TRACK 301 AUDIO
    TITLE "0:"
    INDEX 01 10:30:05
  TRACK 302 AUDIO
    TITLE "4:cjc087_1495"
    INDEX 01 10:31:03
  TRACK 303 AUDIO
    TITLE "3:cjc087_1496"
    INDEX 01 10:33:41
  TRACK 304 AUDIO
    TITLE "0:"
    INDEX 01 10:35:73
  TRACK 305 AUDIO
    TITLE "4:cjc087_1497"
    INDEX 01 10:36:72
  TRACK 306 AUDIO
    TITLE "3:cjc087_1498"
    INDEX 01 10:39:29
  TRACK 307 AUDIO
    TITLE "0:"
    INDEX 01 10:41:50
  TRACK 308 AUDIO
    TITLE "4:cjc087_1499"
    INDEX 01 10:42:49
  TRACK 309 AUDIO
    TITLE "3:cjc087_1500"
    INDEX 01 10:44:25
  TRACK 310 AUDIO
    TITLE "0:"
    INDEX 01 10:46:69
  TRACK 311 AUDIO
    TITLE "4:cjc087_1501"
    INDEX 01 10:47:68
  TRACK 312 AUDIO
    TITLE "3:cjc087_1502"
    INDEX 01 10:50:16
  TRACK 313 AUDIO
    TITLE "0:"
    INDEX 01 10:53:08
  TRACK 314 AUDIO
    TITLE "4:cjc087_1503"
    INDEX 01 10:54:07
  TRACK 315 AUDIO
    TITLE "3:cjc087_1504"
    INDEX 01 10:55:68
  TRACK 316 AUDIO
    TITLE "0:"
    INDEX 01 10:58:15
  TRACK 317 AUDIO
    TITLE "4:cjc087_1505"
    INDEX 01 10:59:11
  TRACK 318 AUDIO
    TITLE "3:cjc087_1506"
    INDEX 01 11:01:55
  TRACK 319 AUDIO
    TITLE "0:"
    INDEX 01 11:04:47
  TRACK 320 AUDIO
    TITLE "4:cjc087_1507"
    INDEX 01 11:05:45
  TRACK 321 AUDIO
    TITLE "3:cjc087_1508"
    INDEX 01 11:07:28
  TRACK 322 AUDIO
    TITLE "0:"
    INDEX 01 11:09:46
  TRACK 323 AUDIO
    TITLE "5:cjc087_1509"
    INDEX 01 11:11:08
  TRACK 324 AUDIO
    TITLE "0:"
    INDEX 01 11:12:62
  TRACK 325 AUDIO
    TITLE "4:cjc087_1510"
    INDEX 01 11:13:58
  TRACK 326 AUDIO
    TITLE "3:cjc087_1511"
    INDEX 01 11:16:03
  TRACK 327 AUDIO
    TITLE "0:"
    INDEX 01 11:18:14
  TRACK 328 AUDIO
    TITLE "4:cjc087_1512"
    INDEX 01 11:19:11
  TRACK 329 AUDIO
    TITLE "3:cjc087_1513"
    INDEX 01 11:21:04
  TRACK 330 AUDIO
    TITLE "0:"
    INDEX 01 11:23:44
  TRACK 331 AUDIO
    TITLE "4:cjc087_1514"
    INDEX 01 11:24:40
  TRACK 332 AUDIO
    TITLE "3:cjc087_1515"
    INDEX 01 11:26:19
  TRACK 333 AUDIO
    TITLE "0:"
    INDEX 01 11:28:22
  TRACK 334 AUDIO
    TITLE "4:cjc087_1516"
    INDEX 01 11:29:21
  TRACK 335 AUDIO
    TITLE "3:cjc087_1517"
    INDEX 01 11:31:44
  TRACK 336 AUDIO
    TITLE "0:"
    INDEX 01 11:33:68
  TRACK 337 AUDIO
    TITLE "4:cjc087_1518"
    INDEX 01 11:34:66
  TRACK 338 AUDIO
    TITLE "3:cjc087_1519"
    INDEX 01 11:36:18
  TRACK 339 AUDIO
    TITLE "0:"
    INDEX 01 11:38:03
  TRACK 340 AUDIO
    TITLE "4:cjc087_1520"
    INDEX 01 11:39:00
  TRACK 341 AUDIO
    TITLE "3:cjc087_1521"
    INDEX 01 11:44:33
  TRACK 342 AUDIO
    TITLE "0:"
    INDEX 01 11:49:69
  TRACK 343 AUDIO
    TITLE "4:cjc087_1522"
    INDEX 01 11:50:67
  TRACK 344 AUDIO
    TITLE "3:cjc087_1523"
    INDEX 01 11:52:52
  TRACK 345 AUDIO
    TITLE "0:"
    INDEX 01 11:54:49
  TRACK 346 AUDIO
    TITLE "2:cjc087_1524"
    INDEX 01 11:56:11
  TRACK 347 AUDIO
    TITLE "0:"
    INDEX 01 12:12:04
  TRACK 348 AUDIO
    TITLE "5:cjc087_1525"
    INDEX 01 12:13:42
  TRACK 349 AUDIO
    TITLE "0:"
    INDEX 01 12:15:18
  TRACK 350 AUDIO
    TITLE "4:cjc087_1526"
    INDEX 01 12:16:15
  TRACK 351 AUDIO
    TITLE "3:cjc087_1527"
    INDEX 01 12:18:12
  TRACK 352 AUDIO
    TITLE "0:"
    INDEX 01 12:20:70
  TRACK 353 AUDIO
    TITLE "4:cjc087_1528"
    INDEX 01 12:21:67
  TRACK 354 AUDIO
    TITLE "3:cjc087_1529"
    INDEX 01 12:23:27
  TRACK 355 AUDIO
    TITLE "0:"
    INDEX 01 12:25:28
  TRACK 356 AUDIO
    TITLE "4:cjc087_1530"
    INDEX 01 12:26:25
  TRACK 357 AUDIO
    TITLE "3:cjc087_1531"
    INDEX 01 12:28:26
  TRACK 358 AUDIO
    TITLE "0:"
    INDEX 01 12:30:43
  TRACK 359 AUDIO
    TITLE "4:cjc087_1532"
    INDEX 01 12:31:38
  TRACK 360 AUDIO
    TITLE "3:cjc087_1533"
    INDEX 01 12:33:43
  TRACK 361 AUDIO
    TITLE "0:"
    INDEX 01 12:36:06
  TRACK 362 AUDIO
    TITLE "4:cjc087_1534"
    INDEX 01 12:37:06
  TRACK 363 AUDIO
    TITLE "3:cjc087_1535"
    INDEX 01 12:38:50
  TRACK 364 AUDIO
    TITLE "0:"
    INDEX 01 12:40:35
  TRACK 365 AUDIO
    TITLE "4:cjc087_1536"
    INDEX 01 12:41:33
  TRACK 366 AUDIO
    TITLE "3:cjc087_1537"
    INDEX 01 12:42:60
  TRACK 367 AUDIO
    TITLE "0:"
    INDEX 01 12:45:23
  TRACK 368 AUDIO
    TITLE "4:cjc087_1538"
    INDEX 01 12:46:20
  TRACK 369 AUDIO
    TITLE "3:cjc087_1539"
    INDEX 01 12:49:13
  TRACK 370 AUDIO
    TITLE "0:"
    INDEX 01 12:53:09
  TRACK 371 AUDIO
    TITLE "5:cjc087_1540"
    INDEX 01 12:54:43
  TRACK 372 AUDIO
    TITLE "0:"
    INDEX 01 12:56:24
  TRACK 373 AUDIO
    TITLE "3:cjc087_1541"
    INDEX 01 12:57:24
  TRACK 374 AUDIO
    TITLE "4:cjc087_1542"
    INDEX 01 13:00:58
  TRACK 375 AUDIO
    TITLE "0:"
    INDEX 01 13:03:11
  TRACK 376 AUDIO
    TITLE "3:cjc087_1543"
    INDEX 01 13:04:08
  TRACK 377 AUDIO
    TITLE "4:cjc087_1544"
    INDEX 01 13:06:13
  TRACK 378 AUDIO
    TITLE "0:"
    INDEX 01 13:07:65
  TRACK 379 AUDIO
    TITLE "3:cjc087_1545"
    INDEX 01 13:08:63
  TRACK 380 AUDIO
    TITLE "4:cjc087_1546"
    INDEX 01 13:11:06
  TRACK 381 AUDIO
    TITLE "0:"
    INDEX 01 13:13:11
  TRACK 382 AUDIO
    TITLE "3:cjc087_1547"
    INDEX 01 13:14:09
  TRACK 383 AUDIO
    TITLE "4:cjc087_1548"
    INDEX 01 13:17:11
  TRACK 384 AUDIO
    TITLE "0:"
    INDEX 01 13:19:39
  TRACK 385 AUDIO
    TITLE "3:cjc087_1549"
    INDEX 01 13:20:39
  TRACK 386 AUDIO
    TITLE "4:cjc087_1550"
    INDEX 01 13:22:61
  TRACK 387 AUDIO
    TITLE "0:"
    INDEX 01 13:24:72
  TRACK 388 AUDIO
    TITLE "3:cjc087_1551"
    INDEX 01 13:25:69
  TRACK 389 AUDIO
    TITLE "4:cjc087_1552"
    INDEX 01 13:27:66
  TRACK 390 AUDIO
    TITLE "0:"
    INDEX 01 13:30:27
  TRACK 391 AUDIO
    TITLE "5:cjc087_1553"
    INDEX 01 13:31:62
  TRACK 392 AUDIO
    TITLE "0:"
    INDEX 01 13:33:43
  TRACK 393 AUDIO
    TITLE "4:cjc087_1554"
    INDEX 01 13:34:41
  TRACK 394 AUDIO
    TITLE "3:cjc087_1555"
    INDEX 01 13:37:33
  TRACK 395 AUDIO
    TITLE "0:"
    INDEX 01 13:40:49
  TRACK 396 AUDIO
    TITLE "4:cjc087_1556"
    INDEX 01 13:41:49
  TRACK 397 AUDIO
    TITLE "3:cjc087_1557"
    INDEX 01 13:44:14
  TRACK 398 AUDIO
    TITLE "0:"
    INDEX 01 13:46:66
  TRACK 399 AUDIO
    TITLE "4:cjc087_1558"
    INDEX 01 13:47:65
  TRACK 400 AUDIO
    TITLE "3:cjc087_1559"
    INDEX 01 13:50:63
  TRACK 401 AUDIO
    TITLE "0:"
    INDEX 01 13:53:26
  TRACK 402 AUDIO
    TITLE "4:cjc087_1560"
    INDEX 01 13:54:26
  TRACK 403 AUDIO
    TITLE "3:cjc087_1561"
    INDEX 01 13:56:56
  TRACK 404 AUDIO
    TITLE "0:"
    INDEX 01 13:59:35
  TRACK 405 AUDIO
    TITLE "4:cjc087_1562"
    INDEX 01 14:00:32
  TRACK 406 AUDIO
    TITLE "3:cjc087_1563"
    INDEX 01 14:02:65
  TRACK 407 AUDIO
    TITLE "0:"
    INDEX 01 14:04:65
  TRACK 408 AUDIO
    TITLE "4:cjc087_1564"
    INDEX 01 14:05:63
  TRACK 409 AUDIO
    TITLE "3:cjc087_1565"
    INDEX 01 14:08:28
  TRACK 410 AUDIO
    TITLE "0:"
    INDEX 01 14:11:11
  TRACK 411 AUDIO
    TITLE "4:cjc087_1566"
    INDEX 01 14:12:08
  TRACK 412 AUDIO
    TITLE "3:cjc087_1567"
    INDEX 01 14:13:45
  TRACK 413 AUDIO
    TITLE "0:"
    INDEX 01 14:15:10
  TRACK 414 AUDIO
    TITLE "5:cjc087_1568"
    INDEX 01 14:16:55
  TRACK 415 AUDIO
    TITLE "0:"
    INDEX 01 14:18:38
  TRACK 416 AUDIO
    TITLE "4:cjc087_1569"
    INDEX 01 14:19:39
  TRACK 417 AUDIO
    TITLE "3:cjc087_1570"
    INDEX 01 14:21:34
  TRACK 418 AUDIO
    TITLE "0:"
    INDEX 01 14:23:71
  TRACK 419 AUDIO
    TITLE "4:cjc087_1571"
    INDEX 01 14:24:68
  TRACK 420 AUDIO
    TITLE "3:cjc087_1572"
    INDEX 01 14:27:12
  TRACK 421 AUDIO
    TITLE "0:"
    INDEX 01 14:30:33
  TRACK 422 AUDIO
    TITLE "4:cjc087_1573"
    INDEX 01 14:31:31
  TRACK 423 AUDIO
    TITLE "3:cjc087_1574"
    INDEX 01 14:34:27
  TRACK 424 AUDIO
    TITLE "0:"
    INDEX 01 14:37:22
  TRACK 425 AUDIO
    TITLE "4:cjc087_1575"
    INDEX 01 14:38:19
  TRACK 426 AUDIO
    TITLE "3:cjc087_1576"
    INDEX 01 14:41:02
  TRACK 427 AUDIO
    TITLE "0:"
    INDEX 01 14:44:06
  TRACK 428 AUDIO
    TITLE "4:cjc087_1577"
    INDEX 01 14:45:02
  TRACK 429 AUDIO
    TITLE "3:cjc087_1578"
    INDEX 01 14:47:61
  TRACK 430 AUDIO
    TITLE "0:"
    INDEX 01 14:50:42
  TRACK 431 AUDIO
    TITLE "5:cjc087_1579"
    INDEX 01 14:52:04
  TRACK 432 AUDIO
    TITLE "0:"
    INDEX 01 14:53:62
  TRACK 433 AUDIO
    TITLE "4:cjc087_1580"
    INDEX 01 14:54:59
  TRACK 434 AUDIO
    TITLE "3:cjc087_1581"
    INDEX 01 14:56:17
  TRACK 435 AUDIO
    TITLE "0:"
    INDEX 01 14:57:62
  TRACK 436 AUDIO
    TITLE "4:cjc087_1582"
    INDEX 01 14:58:61
  TRACK 437 AUDIO
    TITLE "3:cjc087_1583"
    INDEX 01 15:00:66
  TRACK 438 AUDIO
    TITLE "0:"
    INDEX 01 15:02:61
  TRACK 439 AUDIO
    TITLE "4:cjc087_1584"
    INDEX 01 15:03:58
  TRACK 440 AUDIO
    TITLE "3:cjc087_1585"
    INDEX 01 15:05:65
  TRACK 441 AUDIO
    TITLE "0:"
    INDEX 01 15:08:32
  TRACK 442 AUDIO
    TITLE "4:cjc087_1586"
    INDEX 01 15:09:32
  TRACK 443 AUDIO
    TITLE "3:cjc087_1587"
    INDEX 01 15:12:06
  TRACK 444 AUDIO
    TITLE "0:"
    INDEX 01 15:14:35
  TRACK 445 AUDIO
    TITLE "4:cjc087_1588"
    INDEX 01 15:15:32
  TRACK 446 AUDIO
    TITLE "3:cjc087_1589"
    INDEX 01 15:17:29
  TRACK 447 AUDIO
    TITLE "0:"
    INDEX 01 15:19:22
  TRACK 448 AUDIO
    TITLE "4:cjc087_1590"
    INDEX 01 15:20:22
  TRACK 449 AUDIO
    TITLE "3:cjc087_1591"
    INDEX 01 15:22:67
  TRACK 450 AUDIO
    TITLE "0:"
    INDEX 01 15:27:04
  TRACK 451 AUDIO
    TITLE "4:cjc087_1592"
    INDEX 01 15:28:01
  TRACK 452 AUDIO
    TITLE "3:cjc087_1593"
    INDEX 01 15:30:12
  TRACK 453 AUDIO
    TITLE "0:"
    INDEX 01 15:32:60
  TRACK 454 AUDIO
    TITLE "5:cjc087_1594"
    INDEX 01 15:34:22
  TRACK 455 AUDIO
    TITLE "0:"
    INDEX 01 15:36:05
  TRACK 456 AUDIO
    TITLE "4:cjc087_1595"
    INDEX 01 15:37:02
  TRACK 457 AUDIO
    TITLE "3:cjc087_1596"
    INDEX 01 15:39:39
  TRACK 458 AUDIO
    TITLE "0:"
    INDEX 01 15:42:43
  TRACK 459 AUDIO
    TITLE "4:cjc087_1597"
    INDEX 01 15:43:38
  TRACK 460 AUDIO
    TITLE "3:cjc087_1598"
    INDEX 01 15:45:16
  TRACK 461 AUDIO
    TITLE "0:"
    INDEX 01 15:47:44
  TRACK 462 AUDIO
    TITLE "4:cjc087_1599"
    INDEX 01 15:48:41
  TRACK 463 AUDIO
    TITLE "3:cjc087_1600"
    INDEX 01 15:51:20
  TRACK 464 AUDIO
    TITLE "0:"
    INDEX 01 15:54:30
  TRACK 465 AUDIO
    TITLE "4:cjc087_1601"
    INDEX 01 15:55:28
  TRACK 466 AUDIO
    TITLE "3:cjc087_1602"
    INDEX 01 15:57:40
  TRACK 467 AUDIO
    TITLE "0:"
    INDEX 01 16:00:01
  TRACK 468 AUDIO
    TITLE "4:cjc087_1603"
    INDEX 01 16:00:74
  TRACK 469 AUDIO
    TITLE "3:cjc087_1604"
    INDEX 01 16:02:53
  TRACK 470 AUDIO
    TITLE "0:"
    INDEX 01 16:04:46
  TRACK 471 AUDIO
    TITLE "4:cjc087_1605"
    INDEX 01 16:05:44
  TRACK 472 AUDIO
    TITLE "3:cjc087_1606"
    INDEX 01 16:07:45
  TRACK 473 AUDIO
    TITLE "0:"
    INDEX 01 16:09:38
  TRACK 474 AUDIO
    TITLE "4:cjc087_1607"
    INDEX 01 16:10:35
  TRACK 475 AUDIO
    TITLE "3:cjc087_1608"
    INDEX 01 16:12:24
  TRACK 476 AUDIO
    TITLE "0:"
    INDEX 01 16:14:23
  TRACK 477 AUDIO
    TITLE "4:cjc087_1609"
    INDEX 01 16:15:23
  TRACK 478 AUDIO
    TITLE "3:cjc087_1610"
    INDEX 01 16:18:11
  TRACK 479 AUDIO
    TITLE "0:"
    INDEX 01 16:20:53
  TRACK 480 AUDIO
    TITLE "2:cjc087_1611"
    INDEX 01 16:22:19
  TRACK 481 AUDIO
    TITLE "0:"
    INDEX 01 16:32:43
